# xmcd
#
# Track frame offsets:
#	150
#	15684
#	32576
#	50772
#	67409
#	85554
#	101730
#	118943
#	139479
#	155834
#	173347
#	192129
#	210180
#	225704
#	241692
#
# Disc length: 3478 seconds
#
# Revision: 3
# Processed by: cddbd v1.5.2PL0 Copyright (c) Steve Scherf et al.
# Submitted via: audiograbber 1.83.01
#
DISCID=c90d940f
DTITLE=Blue - One love
DYEAR=2002
DGENRE=Pop
TTITLE0=One Love
TTITLE1=Riders
TTITLE2=Flexin'
TTITLE3=Sorry Seems To Be The Hardest Word
TTITLE4=She Told Me
TTITLE5=Right Here Waiting
TTITLE6=U Make Me Wanna
TTITLE7=Ain't Got You
TTITLE8=Supersexual
TTITLE9=Don't Treat Me Like A Fool
TTITLE10=Get Down
TTITLE11=Privacy
TTITLE12=Without You
TTITLE13=Invitation
TTITLE14=Like A Friend
EXTD=YEAR: 2002
EXTT0=
EXTT1=
EXTT2=
EXTT3=
EXTT4=
EXTT5=
EXTT6=
EXTT7=
EXTT8=
EXTT9=
EXTT10=
EXTT11=
EXTT12=
EXTT13=
EXTT14=
PLAYORDER=
